<svg xmlns="http://www.w3.org/2000/svg" version="1.1" xmlns:xlink="http://www.w3.org/1999/xlink" xmlns:svgjs="http://svgjs.dev/svgjs" width="1000" height="358" viewBox="0 0 1000 358"><g transform="matrix(1,0,0,1,-0.6060606060606233,-0.10379558915781217)"><svg viewBox="0 0 396 142" data-background-color="#00ffef" preserveAspectRatio="xMidYMid meet" height="358" width="1000" xmlns="http://www.w3.org/2000/svg" xmlns:xlink="http://www.w3.org/1999/xlink"><g id="tight-bounds" transform="matrix(1,0,0,1,0.2400000000000091,0.041170317487171815)"><svg viewBox="0 0 395.52 141.91765936502563" height="141.91765936502563" width="395.52"><g><svg viewBox="0 0 769.3050861653262 276.0365523012552" height="141.91765936502563" width="395.52"><g><rect width="20.74438429687431" height="276.0365523012552" x="449.82467093422594" y="0" fill="#374151" opacity="1" stroke-width="0" stroke="transparent" fill-opacity="1" class="rect-o-0" data-fill-palette-color="primary" rx="1%" id="o-0" data-palette-color="#374151"></rect></g><g transform="matrix(1,0,0,1,0,23.003046025104595)"><svg viewBox="0 0 395.52 230.030460251046" height="230.030460251046" width="395.52"><g id="textblocktransform"><svg viewBox="0 0 395.52 230.030460251046" height="230.030460251046" width="395.52" id="textblock"><g><svg viewBox="0 0 395.52 230.030460251046" height="230.030460251046" width="395.52"><g transform="matrix(1,0,0,1,0,0)"><svg width="395.52" viewBox="2.299999952316284 -34.349998474121094 59.75 34.75" height="230.030460251046" data-palette-color="#374151"><path d="M29.1-29.63Q33.25-24.9 33.25-17 33.25-9.1 29.08-4.35 24.9 0.4 17.8 0.4L17.8 0.4Q10.75 0.4 6.53-4.35 2.3-9.1 2.3-17L2.3-17Q2.3-24.85 6.5-29.6 10.7-34.35 17.75-34.35L17.75-34.35Q24.95-34.35 29.1-29.63ZM10.38-26.18Q7.7-22.8 7.7-17 7.7-11.2 10.45-7.8 13.2-4.4 17.8-4.4L17.8-4.4Q22.55-4.4 25.2-7.75 27.85-11.1 27.85-17L27.85-17Q27.85-22.85 25.18-26.2 22.5-29.55 17.75-29.55L17.75-29.55Q13.05-29.55 10.38-26.18ZM62.05-4.25L62.05 0 38.25 0 38.25-4.05 55.25-29.45 38.5-29.45 38.5-33.7 61.35-33.7 61.35-29.75 44.3-4.25 62.05-4.25Z" opacity="1" transform="matrix(1,0,0,1,0,0)" fill="#374151" class="wordmark-text-0" data-fill-palette-color="primary" id="text-0"></path></svg></g></svg></g></svg></g></svg></g><g transform="matrix(1,0,0,1,524.8737261653262,12.63212558745171)"><svg viewBox="0 0 244.43135999999998 250.77230112635178" height="250.77230112635178" width="244.43135999999998"><g><svg xmlns="http://www.w3.org/2000/svg" xmlns:xlink="http://www.w3.org/1999/xlink" version="1.1" x="0" y="0" viewBox="5.637740612030029 5.999001502990723 87.72526550292969 90.0009994506836" enable-background="new 0 0 100 100" xml:space="preserve" height="250.77230112635178" width="244.43135999999998" class="icon-icon-0" data-fill-palette-color="accent" id="icon-0"><g fill="#374151" data-fill-palette-color="accent"><path d="M58.203 96H40.796c-2.211 0-4.011-1.8-4.011-4.011v-7.236c0-0.358-0.744-0.91-1.94-1.438l-0.194-0.09c-2.285-1.021-4.509-2.359-6.563-3.955-0.524-0.407-1.227-0.518-1.633-0.281l-6.016 3.473c-2.092 1.207-4.493 0.42-5.558-1.424L6.177 65.962c-0.536-0.928-0.678-2.008-0.401-3.043 0.278-1.036 0.941-1.901 1.87-2.437l0.938 1.286L7.787 60.4l0.414-0.238 0.912 1.301L8.32 60.094l4.765-2.75c1.446-0.84 1.446-0.84 1.32-1.739-0.201-1.366-0.29-2.776-0.29-4.503v-0.203c0-1.726 0.089-3.136 0.281-4.435l0.013-0.094c0.122-0.874 0.122-0.874-1.377-1.743l-4.709-2.719 0.696-1.425-0.79 1.371-0.44-0.254 0.699-1.423-0.843 1.34c-1.914-1.105-2.573-3.563-1.467-5.478l8.704-15.076c0.714-1.238 2.046-2.006 3.476-2.006 0.701 0 1.394 0.186 2.003 0.537l6.111 3.528c0.409 0.223 1.1 0.11 1.617-0.292 2.052-1.594 4.277-2.933 6.612-3.979l0.145-0.066c1.196-0.528 1.94-1.079 1.94-1.438v-7.236c0-2.212 1.8-4.012 4.011-4.012h17.407c2.212 0 4.011 1.8 4.011 4.012v7.236c0 0.358 0.745 0.909 1.942 1.438l0.171 0.079c2.323 1.042 4.538 2.376 6.586 3.966 0.516 0.401 1.205 0.513 1.616 0.292l6.083-3.512c2.022-1.147 4.446-0.383 5.508 1.451l8.703 15.077c1.104 1.916 0.446 4.373-1.469 5.479l-4.01 2.316-0.901-1.308 0.794 1.369-1.223 0.707c-1.544 0.895-1.544 0.895-1.418 1.795l0.016 0.116c0.188 1.314 0.272 2.698 0.272 4.387L84.884 51l0.001 0.102c0 1.72-0.088 3.123-0.277 4.413l-0.001 0.016c-0.136 0.975-0.136 0.975 1.362 1.844l1.269 0.732-0.692 1.426 0.794-1.368 3.341 1.929-0.698 1.425 0.79-1.372 0.605 0.351c0.905 0.521 1.569 1.387 1.846 2.423 0.278 1.035 0.136 2.115-0.399 3.043L84.12 81.037c-0.715 1.238-2.048 2.006-3.478 2.006-0.701 0-1.394-0.186-2.003-0.537l-6.084-3.513c-0.436-0.252-1.119-0.13-1.642 0.275-2.041 1.585-4.247 2.915-6.558 3.954l-0.227 0.103c-1.171 0.518-1.916 1.069-1.916 1.428v7.236C62.214 94.2 60.415 96 58.203 96zM36.123 80.419c1.643 0.727 3.827 1.965 3.827 4.334v7.236c0 0.466 0.379 0.847 0.846 0.847h17.407c0.467 0 0.848-0.381 0.848-0.847v-7.236c0-2.369 2.185-3.607 3.827-4.334l0.129-0.06c2.102-0.939 4.107-2.147 5.965-3.589 1.52-1.182 3.647-1.392 5.153-0.525l2.512 1.449-0.679 1.437 0.785-1.373 1.374 0.793-0.645 1.454 0.791-1.37 1.941 1.121c0.173 0.092 0.303 0.123 0.438 0.123 0.304 0 0.586-0.163 0.736-0.425l8.703-15.074c0.113-0.196 0.144-0.424 0.084-0.643-0.058-0.218-0.197-0.4-0.394-0.514l-5.343-3.085c-2.381-1.38-3.312-2.363-2.978-4.897l0.016-0.122c0.174-1.184 0.253-2.446 0.253-4.018L81.72 51l0.001-0.102c0-1.571-0.079-2.834-0.247-3.974l-0.018-0.145c-0.353-2.541 0.576-3.529 2.926-4.891l1.577-0.911 0.891 1.312-0.792-1.369 3.04-1.755 0.884 1.316-0.789-1.371 0.523-0.303c0.46-0.266 0.6-0.785 0.366-1.19l-8.703-15.075c-0.227-0.393-0.754-0.542-1.157-0.31l-3.479 2.008-0.84-1.342 0.75 1.394-2.604 1.5v0c-1.617 0.865-3.599 0.585-5.077-0.565-1.854-1.439-3.859-2.646-5.96-3.586l-0.085-0.041c-1.696-0.75-3.876-1.988-3.876-4.354v-7.236c0-0.467-0.381-0.847-0.848-0.847H40.796c-0.467 0-0.846 0.379-0.846 0.847v7.236c0 2.369-2.184 3.607-3.827 4.333l-0.75-1.397 0.655 1.44c-2.139 0.958-4.146 2.166-5.999 3.605-1.52 1.182-3.648 1.392-5.153 0.526l-2.513-1.451 0.679-1.436-0.785 1.374-3.413-1.971c-0.197-0.114-0.338-0.152-0.487-0.152-0.303 0-0.584 0.163-0.735 0.424L8.917 37.62c-0.113 0.196-0.143 0.425-0.084 0.643s0.199 0.4 0.394 0.514l5.34 3.083c2.408 1.396 3.334 2.386 2.971 4.977l-0.014 0.099c-0.167 1.133-0.245 2.396-0.245 3.964l0.001 0.125c-0.001 1.646 0.077 2.909 0.245 4.052l0.014 0.107c0.362 2.573-0.565 3.562-2.921 4.929L9.285 63.19c-0.253 0.146-0.393 0.329-0.452 0.547-0.059 0.219-0.029 0.446 0.084 0.642l8.705 15.076c0.228 0.396 0.756 0.541 1.157 0.311l3.479-2.009 0.841 1.341-0.73-1.405 2.578-1.485c0.553-0.32 1.282-0.511 2.039-0.511 1.072 0 2.153 0.382 3.044 1.074 1.844 1.434 3.839 2.636 5.931 3.574l0.087 0.041-0.129 0.271-0.434 1.211L36.123 80.419z" fill="#374151" data-fill-palette-color="accent"></path></g><g fill="#374151" data-fill-palette-color="accent"><path d="M49.5 78.996c-15.382 0-27.896-12.513-27.896-27.895 0-15.382 12.514-27.896 27.896-27.896s27.896 12.514 27.896 27.896C77.396 66.483 64.882 78.996 49.5 78.996zM49.5 26.37c-13.637 0-24.731 11.095-24.731 24.732 0 13.637 11.094 24.731 24.731 24.731 13.638 0 24.732-11.095 24.732-24.731C74.232 37.464 63.138 26.37 49.5 26.37z" fill="#374151" data-fill-palette-color="accent"></path></g><path fill-rule="evenodd" clip-rule="evenodd" d="M60.46 62.594l-2.454-2.454 8.588-8.587-8.588-8.589 2.454-2.454 11.042 11.043L60.46 62.594zM44.735 61.963l7.537-22.557h3.471l-7.537 22.557H44.735zM39.529 61.726L28.487 50.685l11.042-11.042 2.454 2.454-8.588 8.588 8.588 8.588L39.529 61.726z" fill="#374151" data-fill-palette-color="accent"></path></svg></g></svg></g></svg></g><defs></defs></svg><rect width="395.52" height="141.91765936502563" fill="none" stroke="none" visibility="hidden"></rect></g></svg></g></svg>